<svg xmlns="http://www.w3.org/2000/svg" xml:space="preserve" style="enable-background:new 0 0 2400 855" viewBox="0 0 2400 855"><path d="M2129 9c.4 2.1.2 1.9 1 3 8.3 8.8 35.2 10.8 52 10 3.9-.2 8.9-2.1 14-1 7.7 1.7 30.7-10.9 39-14 5 .3 10 .7 15 1 2-.7 3.8-2.8 9-2h1c3.4.8 6.7 4.4 12 3 4.8-1.2 19.8-4.5 27-3 2.4.5 7.5 4.4 11 4 4.8-.5 12.2-5.2 17-4 3.5.9 10.2 4.6 16 3 5.3-1.5 8.9-5.3 15-6 2.5 2.6 8.9 8.5 13 9 1.7-2 2.1-1.9 6-2 1.8 3 10.9 16.3 14 17 2.7-2.2 6.3-4.2 9-6v813h-1c-2.4-3.7-5.5-5.4-11-6-3 7.1-6.1 16.6-16 17-1.7-1.9-1.4-1.7-5-2-2.4 5.1-5.4 8.1-12 9-7.2-7.2-18.3-5.6-28-3-5.1 1.3-12.6-3.8-18-4-3-.1-7.9 3.5-10 4h-20c-1.7-.3-5.5-2.6-7-3-4.1-1.1-6.2 1.4-8 2-6.3 2.1-11.4-.1-14-1-5 .3-10 .7-15 1-1.1-.4-4.9-3.5-6-4-2.7-.3-5.3-.7-8-1-.3-1-.7-2-1-3-3.3-.3-6.7-.7-10-1-2.7-1.1-5-5-8-6-5.7.3-11.3.7-17 1-9-2-42.4.1-50 4-1.9 1-3.5 3.7-6 5v3c-6.3.2-19.2 1.9-24-1-1.2-.7-1.8-4.3-3-5h-2c-1.7 1.7-16.8-6.2-22-5-2.7.6-6.4 4.6-10 6-6.7-.3-13.3-.7-20-1-2.2.7-6.1 2.8-7 3-5.9 1.3-11.2-1.4-15-2-8.5-1.3-25.4.5-35 3h-13c-1.5.6-2.7 4.4-4 5-3.3-.3-6.7-.7-10-1-9.3 2.4-35.6 5.1-42 2-6.9.6-30.1 5.4-39 2-3.9-1.5-7.4-6.8-11-8-2.3.3-4.7.7-7 1-2.7-.8-6.5-5.5-10-6-8-1.2-40.7 10.1-48 6-3.8-4.5-2.5-8.6-11-9-1.4 2-1.3 2.1-4 3-3.5-4.8-8.7-9.9-16-11-3.4 6.4-7 16.1-16 17-1.8-1.6-2.5-1.7-6-2-4.4 14.1-14.4 5.5-24 3-7.2-1.9-13.1 4.5-19 3-4.1-1-12.3-5.4-20-3-.8.2-3.2 2.8-4 3-5.7 1.5-23.6-2-27-3-4-1.2-6.2 1.4-8 2-6.3 2.1-11.4-.1-14-1-5 .3-10 .7-15 1-5.1-1.6-11.7-6-16-8-3.3-.3-6.7-.7-10-1-2.9-1.1-4.6-5-8-6-5.7.3-11.3.7-17 1-7.6-1.7-34.3-.6-43 2-7.4 2.3-10 9.3-18 10-3.9 2.3-17 .4-20-2-2.6-2.2-1.5-3.2-4-4-2.8.6-16.3-3.5-22-5-3.4 1.2-6.2 4.3-10 6-5.3-.3-10.7-.7-16-1-5.5.2-9.2 2.3-12 3-11.8 2.9-18.4-4.6-30-2-5.1 1.2-14.7 1.8-19 3h-13l-5 5c-3.3-.3-6.7-.7-10-1-.9.3-3.9 2.7-5 3-3.8 1.2-24.3-.7-26-1-4.2-.7-5 3.4-10 2-.3-.7-.7-1.3-1-2-4-1.3-30.8 5.3-39 2-.6-.2-6.2-3.2-7-4-.3-1-.7-2-1-3-2.7-1.7-6.7-.7-9 0-3.1-1.3-6.3-5.1-10-6-9.1-2.3-23.8 3.1-35 6-3.2.8-12.9.1-13 0-3-2.6-2.9-6.3-7-8-3.9-2.1-5.2 1.8-8 1-7.1-2.5-7.7-8.7-17-10-3 7.1-6.1 16.6-16 17-1.7-1.9-1.4-1.7-5-2-2.5 5.3-5.7 8.5-13 9-9-12.2-21.8-.7-31-3-5.5-1.3-11.9-5.1-19-3-1.1.3-4.2 2.8-5 3-3.6.8-11.6-2-17-1-3.4.6-6.5-1.1-10-2-4.1-1.1-6.2 1.4-8 2-6.3 2.1-11.4-.1-14-1-5 .3-10 .7-15 1-1.1-.4-4.9-3.5-6-4-2.7-.3-5.3-.7-8-1-.3-1-.7-2-1-3-3.3-.3-6.7-.7-10-1-2.7-1.1-5-5-8-6-5.7.3-11.3.7-17 1-9-2-42.4.1-50 4-1.9 1-3.5 3.7-6 5v3c-5.7.2-14.5 2.1-20 1-4-.8-5.4-5.3-8-7h-2c-1.7 1.7-16.8-6.2-22-5-2.7.6-6.4 4.6-10 6-6.7-.3-13.3-.7-20-1-2.2.7-6.1 2.8-7 3-5.9 1.3-11.2-1.4-15-2-8.5-1.3-25.4.5-35 3h-13c-1.5.6-2.7 4.4-4 5-3.3-.3-6.7-.7-10-1-9.3 2.4-35.6 5.1-42 2-6.9.6-30.1 5.4-39 2-3.9-1.5-7.4-6.8-11-8-2.3.3-4.7.7-7 1-2.7-.8-6.5-5.5-10-6-7.9-1.2-40.8 10-48 6-3.8-4.5-2.5-8.6-11-9-1.4 2-1.3 2.1-4 3-3.5-4.8-8.7-9.9-16-11-3.4 6.4-7 16.1-16 17-1.8-1.6-2.5-1.7-6-2-4.4 14-14.5 5.6-24 3-7.2-2-13.1 4.5-19 3-4.1-1-12.3-5.4-20-3-.8.2-3.2 2.8-4 3-5.7 1.5-23.6-2-27-3-4-1.2-6.2 1.4-8 2-6.3 2.1-11.4-.1-14-1-5 .3-10 .7-15 1-5.1-1.6-11.7-6-16-8-3.3-.3-6.7-.7-10-1-2.9-1.1-4.6-5-8-6-5.7.3-11.3.7-17 1-7.6-1.7-34.3-.6-43 2-7.4 2.3-10 9.3-18 10-3.2 1.6-16.6 1-20-1-1.3-.7-1.8-4.1-3-5-1.5-1.2-17.9-3.9-23-5-3.4 1.2-6.3 4.3-10 6-7-.3-14-.7-21-1-2.7.8-4.9 2.5-7 3-5.6 1.3-10.7-1.3-14-2-2.5-.5-26.1-.2-31 1l-4 2h-13l-5 5c-3.3-.3-6.7-.7-10-1-.9.3-3.9 2.7-5 3-4.2 1.2-23.9-.7-26-1-4.2-.6-5 3.4-10 2-.3-.7-.7-1.3-1-2-4.5-1.3-30.6 5.4-39 2-.6-.2-6.2-3.2-7-4-.3-1-.7-2-1-3-2.8-1.7-6.6-.7-9 0-2.2-.9-4.7-4.1-7-5-6.4-2.6-11.1-.5-18 0V15c6.9.6 11.6 2.6 18 0 1.9-.8 5.2-4.7 7-5 2.3-.3 6 1.8 9 0 .3-1 .7-2 1-3 .8-.8 6.4-3.8 7-4 9.8-4 32.6 3.8 39 2 .3-.7.7-1.3 1-2 4.9-1.4 5.8 2.5 10 2 2.5-.3 21.3-2.3 26-1 1.1.3 4.1 2.7 5 3 3.3-.3 6.7-.7 10-1l5 5c2.3 1 14.5 1.4 17 2 17.4 4.5 35.2-4.3 48-1 .9.2 3.9 2.7 5 3 6.7-.3 13.3-.7 20-1 3.2 1.4 6.8 6.4 11 6 2.3-.2 22-5 22-5 1.2-1 1.7-4.2 3-5h4c.3-.7.7-1.3 1-2 3.3-1 15.9.9 20 1 4.6 13 18.9 7.8 34 11 5.4 1.2 14.5 2.9 21 2 2.9-.4 8.6-1.8 13-1 7.8 1.5 29.9-11.3 39-14 5 .3 10 .7 15 1 1.9-.5 3.9-3 9-2 3.7.8 7.7 4.4 13 3 3.9-1.1 20.6-4.5 27-3 .8.2 3.2 2.8 4 3 7.7 2.4 15.8-2 20-3 3.8-.9 9.6 2.3 13 3 8.9 1.8 16.4-7.5 22-6 5.6 1.5 5.3 7.9 12 9 1.8-1.7 2.5-1.7 6-2 2.1 3.4 11.1 16.2 15 17 3.6-3.5 10.1-9.4 15-11 1.9 2.7 2.4 2.9 7 3 2.1-3.3 4.2-6.1 6-10 6.7 2.2 15.5-.3 23 2 9.3 2.9 19 7.5 28 4 2-.8 5.3-4.4 7-5 2.3.3 4.7.7 7 1 3.5-1.2 7.2-6.5 11-8h32c10.4 2.3 19.1-.5 31 2 4-.3 8-.7 12-1 1.4.3 5 2.7 6 3 3.3-.3 6.7-.7 10-1 1.2.6 2.5 4.4 4 5h13c11 2.7 23.7 2 33 3 1.9.2 5.6-1.7 7-2 8.6-2 12.4 1.6 17 3 6.7-.3 13.3-.7 20-1 3.6 1.4 7.3 5.4 10 6 5 1.1 20.9-4.2 23-5h1c1.1-.7 1.8-4.3 3-5 5.2-3.2 17.3-1.4 24-1 6.3 12.1 35.7 13.9 54 13 3.9-.2 8.9-2.1 14-1 7.7 1.7 30.7-10.9 39-14 5 .3 10 .7 15 1 1.8-.6 4-3.1 9-2 3.7.8 7.7 4.4 13 3 4.8-1.2 19.8-4.5 27-3 2.4.5 7.5 4.4 11 4 4.8-.5 12.2-5.2 17-4 3.5.9 10.2 4.6 16 3 5.3-1.5 8.9-5.3 15-6 2.5 2.6 8.9 8.5 13 9 1.7-2 2.1-1.9 6-2 1.8 3 10.9 16.3 14 17 4.9-3.9 9.8-6.5 14-11 4.5 1.6 4.4 3 10 2 1.7-3 3.3-6 5-9 6.5 2.1 15.9-.7 23 2 7.8 2.9 17 6.6 25 5 3.6-.7 7-5.1 10-6 .8-.2 3.7 1.7 6 1 4-1.2 7.2-6.4 11-8h32c10.5 2.4 19.7.3 32 2 4-.3 8-.7 12-1 1.1.3 4.1 2.7 5 3 3.3-.3 6.7-.7 10-1l5 5c2.2 1 14.5 1.3 17 2 9.8 2.6 41.9.6 48-1 1 .4 3.8 2.6 5 3 6.7-.3 13.3-.7 20-1 3.8 1.6 6.4 5.2 10 6 7.3 1.7 18.3-5.6 24-5 .2-8.5 17.4-6.6 27-6 4.6 13 18.9 7.8 34 11 5.4 1.2 14.5 2.9 21 2 2.9-.4 8.6-1.8 13-1 7.8 1.5 29.9-11.3 39-14 5 .3 10 .7 15 1 1.9-.5 3.9-3 9-2 3.7.8 7.7 4.4 13 3 3.9-1.1 20.6-4.5 27-3 .8.2 3.2 2.8 4 3 7.7 2.4 15.8-2 20-3 3.8-.9 9.6 2.3 13 3 8.9 1.8 16.4-7.5 22-6 5.6 1.5 5.3 7.9 12 9 1.8-1.7 2.5-1.7 6-2 2.1 3.4 11.1 16.2 15 17 3.6-3.5 10.1-9.4 15-11 1.9 2.7 2.4 2.9 7 3 2.1-3.3 4.2-6.1 6-10 6.7 2.2 15.6-.3 23 2 9.3 2.9 19.8 8 29 4 1.5-.7 4.4-4.5 6-5 2.3.3 4.7.7 7 1 3.5-1.2 7.1-6.5 11-8h32c10.4 2.3 19.1-.5 31 2 4-.3 8-.7 12-1 1.4.3 5 2.7 6 3 3.3-.3 6.7-.7 10-1 1.2.6 2.5 4.4 4 5h13c11 2.7 23.7 2 33 3 1.9.2 5.6-1.7 7-2 8.6-2 12.3 1.6 17 3 6.7-.3 13.3-.7 20-1 3.5 1.4 7.3 5.4 10 6 5 1.1 20.9-4.2 23-5h1c1.1-.7 1.8-4.3 3-5 4.8-3 17.7-1.3 24-1z" style="fill-rule:evenodd;clip-rule:evenodd;fill:red"/></svg>